<?xml version="1.0" encoding="UTF-8"?>
<!DOCTYPE svg PUBLIC "-//W3C//DTD SVG 1.1//EN" "http://www.w3.org/Graphics/SVG/1.1/DTD/svg11.dtd">
<!-- Creator: CorelDRAW -->
<svg xmlns="http://www.w3.org/2000/svg" xml:space="preserve" width="6.82666in" height="6.82666in" style="shape-rendering:geometricPrecision; text-rendering:geometricPrecision; image-rendering:optimizeQuality; fill-rule:evenodd; clip-rule:evenodd"
viewBox="0 0 6.82666 6.82666"
 xmlns:xlink="http://www.w3.org/1999/xlink">
 <defs>
  <style type="text/css">
   <![CDATA[
    .fil4 {fill:none}
    .fil2 {fill:#B38E85}
    .fil3 {fill:#C794BE}
    .fil1 {fill:#FECA5F}
    .fil0 {fill:#333333;fill-rule:nonzero}
   ]]>
  </style>
 </defs>
 <g id="Layer_x0020_1">
  <metadata id="CorelCorpID_0Corel-Layer"/>
  <path class="fil0" d="M2.26976 2.71319l0.31074 0.310744 0.310744 0.31074 0.0754213 0.0754173 -0.0754213 0.0754173 -0.310744 0.310744 -0.31074 0.310744 -0.0754134 0.0754173 -0.0754213 -0.0754173 -0.310744 -0.310744 -0.310744 -0.310744 -0.0754173 -0.0754173 0.0754173 -0.0754173 0.310744 -0.31074 0.310744 -0.310744 0.0754213 -0.0754173 0.0754134 0.0754173zm0.159906 0.461579l-0.235323 -0.235327 -0.235327 0.235327 -0.235327 0.235323 0.235327 0.235327 0.235327 0.235327 0.235323 -0.235327 0.235327 -0.235327 -0.235327 -0.235323z"/>
  <polygon class="fil0" points="2.81583,1.17476 5.12102,1.17476 5.22769,1.17476 5.22769,1.28143 5.22769,3.41009 5.22769,3.51676 5.12102,3.51676 2.74214,3.51676 2.74214,3.30342 5.01435,3.30342 5.01435,1.3881 2.81583,1.3881 "/>
  <polygon class="fil0" points="2.30101,1.90291 2.30101,2.78861 2.08767,2.78861 2.08767,1.90291 "/>
  <polygon class="fil0" points="2.30101,4.09281 2.30101,4.9785 2.08767,4.9785 2.08767,4.09281 "/>
  <path class="fil0" d="M1.7697 0.876898l0.84928 0 0.106669 0 0 0.106669 0 0.727957 0 0.106669 -0.106669 0 -0.84928 0 -0.106669 0 0 -0.106669 0 -0.727957 0 -0.106669 0.106669 0zm0.74261 0.213339l-0.635941 0 0 0.514618 0.635941 0 0 -0.514618z"/>
  <path class="fil0" d="M1.7697 5.05561l0.84928 0 0.106669 0 0 0.106669 0 0.727957 0 0.106669 -0.106669 0 -0.84928 0 -0.106669 0 0 -0.106669 0 -0.727957 0 -0.106669 0.106669 0zm0.74261 0.213339l-0.635941 0 0 0.514618 0.635941 0 0 -0.514618z"/>
  <polygon class="fil1" points="1.87637,1.60485 2.51231,1.60485 2.51231,1.09024 1.87637,1.09024 "/>
  <polygon class="fil2" points="2.19434,2.93944 1.95902,3.17477 1.72369,3.41009 1.95902,3.64542 2.19434,3.88074 2.42967,3.64542 2.66499,3.41009 2.42967,3.17477 "/>
  <polygon class="fil3" points="2.51231,5.26895 1.87637,5.26895 1.87637,5.78357 2.51231,5.78357 "/>
 </g>
 <rect class="fil4" width="6.82666" height="6.82666"/>
</svg>
