<svg width="41" height="40" viewBox="0 0 41 40" fill="none" xmlns="http://www.w3.org/2000/svg">
<path opacity="0.4" d="M20.4001 8.83336V35.55C20.1167 35.55 19.8167 35.5 19.5834 35.3667L19.5167 35.3334C16.3167 33.5834 10.7334 31.75 7.11673 31.2667L6.6334 31.2C5.0334 31 3.7334 29.5 3.7334 27.9V7.7667C3.7334 5.78336 5.35006 4.28336 7.3334 4.45003C10.8334 4.73336 16.1334 6.50003 19.1001 8.35003L19.5167 8.60003C19.7667 8.75003 20.0834 8.83336 20.4001 8.83336Z" fill="#1E88E5"/>
<path d="M37.0667 7.78336V27.9C37.0667 29.5 35.7667 31 34.1667 31.2L33.6167 31.2667C29.9834 31.75 24.3834 33.6 21.1834 35.3667C20.9667 35.5 20.7 35.55 20.4 35.55V8.83336C20.7167 8.83336 21.0334 8.75003 21.2834 8.60003L21.5667 8.41669C24.5334 6.55003 29.85 4.76669 33.35 4.46669H33.45C35.4334 4.30003 37.0667 5.78336 37.0667 7.78336Z" fill="#1E88E5"/>
<path d="M13.3167 15.4H9.56665C8.88332 15.4 8.31665 14.8334 8.31665 14.15C8.31665 13.4667 8.88332 12.9 9.56665 12.9H13.3167C14 12.9 14.5667 13.4667 14.5667 14.15C14.5667 14.8334 14 15.4 13.3167 15.4Z" fill="#1E88E5"/>
<path d="M14.5667 20.4H9.56665C8.88332 20.4 8.31665 19.8334 8.31665 19.15C8.31665 18.4667 8.88332 17.9 9.56665 17.9H14.5667C15.25 17.9 15.8167 18.4667 15.8167 19.15C15.8167 19.8334 15.25 20.4 14.5667 20.4Z" fill="#1E88E5"/>
</svg>
