<svg width="16" height="16" viewBox="0 0 16 16" fill="none" xmlns="http://www.w3.org/2000/svg">
<path d="M11.7463 7.16667C11.4597 7.16667 11.233 6.93334 11.233 6.65334C11.233 6.40667 10.9863 5.89334 10.573 5.44667C10.1663 5.01334 9.71967 4.76 9.34634 4.76C9.05967 4.76 8.83301 4.52667 8.83301 4.24667C8.83301 3.96667 9.06634 3.73334 9.34634 3.73334C10.013 3.73334 10.713 4.09334 11.3263 4.74C11.8997 5.34667 12.2663 6.1 12.2663 6.64667C12.2663 6.93334 12.033 7.16667 11.7463 7.16667Z" fill="white"/>
<path d="M14.1532 7.16665C13.8665 7.16665 13.6398 6.93331 13.6398 6.65331C13.6398 4.28665 11.7132 2.36665 9.35318 2.36665C9.06651 2.36665 8.83984 2.13331 8.83984 1.85331C8.83984 1.57331 9.06651 1.33331 9.34651 1.33331C12.2798 1.33331 14.6665 3.71998 14.6665 6.65331C14.6665 6.93331 14.4332 7.16665 14.1532 7.16665Z" fill="white"/>
<path d="M7.36634 9.96665L6.13301 11.2C5.87301 11.46 5.45967 11.46 5.19301 11.2066C5.11967 11.1333 5.04634 11.0666 4.97301 10.9933C4.28634 10.3 3.66634 9.57331 3.11301 8.81331C2.56634 8.05331 2.12634 7.29331 1.80634 6.53998C1.49301 5.77998 1.33301 5.05331 1.33301 4.35998C1.33301 3.90665 1.41301 3.47331 1.57301 3.07331C1.73301 2.66665 1.98634 2.29331 2.33967 1.95998C2.76634 1.53998 3.23301 1.33331 3.72634 1.33331C3.91301 1.33331 4.09967 1.37331 4.26634 1.45331C4.43967 1.53331 4.59301 1.65331 4.71301 1.82665L6.25968 4.00665C6.37967 4.17331 6.46634 4.32665 6.52634 4.47331C6.58634 4.61331 6.61967 4.75331 6.61967 4.87998C6.61967 5.03998 6.57301 5.19998 6.47967 5.35331C6.39301 5.50665 6.26634 5.66665 6.10634 5.82665L5.59967 6.35331C5.52634 6.42665 5.49301 6.51331 5.49301 6.61998C5.49301 6.67331 5.49967 6.71998 5.51301 6.77331C5.53301 6.82665 5.55301 6.86665 5.56634 6.90665C5.68634 7.12665 5.89301 7.41331 6.18634 7.75998C6.48634 8.10665 6.80634 8.45998 7.15301 8.81331C7.21967 8.87998 7.29301 8.94665 7.35967 9.01331C7.62634 9.27331 7.63301 9.69998 7.36634 9.96665Z" fill="white"/>
<path d="M14.6471 12.22C14.6471 12.4067 14.6137 12.6 14.5471 12.7867C14.5271 12.84 14.5071 12.8933 14.4804 12.9467C14.3671 13.1867 14.2204 13.4133 14.0271 13.6267C13.7004 13.9867 13.3404 14.2467 12.9337 14.4133C12.9271 14.4133 12.9204 14.42 12.9137 14.42C12.5204 14.58 12.0937 14.6667 11.6337 14.6667C10.9537 14.6667 10.2271 14.5067 9.46039 14.18C8.69372 13.8533 7.92706 13.4133 7.16706 12.86C6.90706 12.6667 6.64706 12.4733 6.40039 12.2667L8.58039 10.0867C8.76706 10.2267 8.93372 10.3333 9.07372 10.4067C9.10706 10.42 9.14706 10.44 9.19372 10.46C9.24706 10.48 9.30039 10.4867 9.36039 10.4867C9.47372 10.4867 9.56039 10.4467 9.63372 10.3733L10.1404 9.87332C10.3071 9.70665 10.4671 9.57999 10.6204 9.49999C10.7737 9.40665 10.9271 9.35999 11.0937 9.35999C11.2204 9.35999 11.3537 9.38665 11.5004 9.44665C11.6471 9.50665 11.8004 9.59332 11.9671 9.70665L14.1737 11.2733C14.3471 11.3933 14.4671 11.5333 14.5404 11.7C14.6071 11.8667 14.6471 12.0333 14.6471 12.22Z" fill="white"/>
</svg>
