<svg width="40" height="40" viewBox="0 0 40 40" fill="none" xmlns="http://www.w3.org/2000/svg">
<path opacity="0.4" d="M27.0665 6.08331H12.9332C8.81655 6.08331 5.48322 9.43331 5.48322 13.5333V29.2166C5.48322 33.3166 8.83322 36.6666 12.9332 36.6666H27.0499C31.1665 36.6666 34.4999 33.3166 34.4999 29.2166V13.5333C34.5165 9.41665 31.1665 6.08331 27.0665 6.08331Z" fill="#1E88E5"/>
<path d="M23.9166 3.33331H16.0832C14.3499 3.33331 12.9332 4.73331 12.9332 6.46665V8.03331C12.9332 9.76665 14.3332 11.1666 16.0666 11.1666H23.9166C25.6499 11.1666 27.0499 9.76665 27.0499 8.03331V6.46665C27.0666 4.73331 25.6499 3.33331 23.9166 3.33331Z" fill="#1E88E5"/>
<path d="M24.9999 21.5833H13.3332C12.6499 21.5833 12.0832 21.0166 12.0832 20.3333C12.0832 19.65 12.6499 19.0833 13.3332 19.0833H24.9999C25.6832 19.0833 26.2499 19.65 26.2499 20.3333C26.2499 21.0166 25.6832 21.5833 24.9999 21.5833Z" fill="#1E88E5"/>
<path d="M20.6332 28.25H13.3332C12.6499 28.25 12.0832 27.6833 12.0832 27C12.0832 26.3167 12.6499 25.75 13.3332 25.75H20.6332C21.3165 25.75 21.8832 26.3167 21.8832 27C21.8832 27.6833 21.3165 28.25 20.6332 28.25Z" fill="#1E88E5"/>
</svg>
