<svg width="40" height="40" viewBox="0 0 40 40" fill="none" xmlns="http://www.w3.org/2000/svg">
<path d="M11.6667 13.3333H6.66671C4.83337 13.3333 3.33337 11.8333 3.33337 9.99998V6.66665C3.33337 4.83331 4.83337 3.33331 6.66671 3.33331H11.6667C13.5 3.33331 15 4.83331 15 6.66665V9.99998C15 11.8333 13.5 13.3333 11.6667 13.3333Z" fill="#1E88E5"/>
<path d="M34.6666 11.6667H28.6666C27.5666 11.6667 26.6666 10.7666 26.6666 9.66665V7.00002C26.6666 5.90002 27.5666 5 28.6666 5H34.6666C35.7666 5 36.6666 5.90002 36.6666 7.00002V9.66665C36.6666 10.7666 35.7666 11.6667 34.6666 11.6667Z" fill="#1E88E5"/>
<path d="M34.6666 24.1667H28.6666C27.5666 24.1667 26.6666 23.2666 26.6666 22.1666V19.5C26.6666 18.4 27.5666 17.5 28.6666 17.5H34.6666C35.7666 17.5 36.6666 18.4 36.6666 19.5V22.1666C36.6666 23.2666 35.7666 24.1667 34.6666 24.1667Z" fill="#1E88E5"/>
<path opacity="0.37" d="M26.6667 22.0833C27.35 22.0833 27.9167 21.5166 27.9167 20.8333C27.9167 20.15 27.35 19.5833 26.6667 19.5833H22.0833V9.58331H26.6667C27.35 9.58331 27.9167 9.01665 27.9167 8.33331C27.9167 7.64998 27.35 7.08331 26.6667 7.08331H15C14.3167 7.08331 13.75 7.64998 13.75 8.33331C13.75 9.01665 14.3167 9.58331 15 9.58331H19.5833V30C19.5833 32.5333 21.6333 34.5833 24.1667 34.5833H26.6667C27.35 34.5833 27.9167 34.0166 27.9167 33.3333C27.9167 32.65 27.35 32.0833 26.6667 32.0833H24.1667C23.0167 32.0833 22.0833 31.15 22.0833 30V22.0833H26.6667Z" fill="#1E88E5"/>
<path d="M34.6666 36.6667H28.6666C27.5666 36.6667 26.6666 35.7666 26.6666 34.6666V32C26.6666 30.9 27.5666 30 28.6666 30H34.6666C35.7666 30 36.6666 30.9 36.6666 32V34.6666C36.6666 35.7666 35.7666 36.6667 34.6666 36.6667Z" fill="#1E88E5"/>
</svg>
