<svg width="16" height="16" viewBox="0 0 16 16" fill="none" xmlns="http://www.w3.org/2000/svg">
<path d="M13.7467 5.63335C13.0467 2.55335 10.3601 1.16669 8.00006 1.16669C8.00006 1.16669 8.00006 1.16669 7.9934 1.16669C5.64006 1.16669 2.94673 2.54669 2.24673 5.62669C1.46673 9.06669 3.5734 11.98 5.48006 13.8134C6.18673 14.4934 7.0934 14.8334 8.00006 14.8334C8.90673 14.8334 9.8134 14.4934 10.5134 13.8134C12.4201 11.98 14.5267 9.07335 13.7467 5.63335ZM8.00006 8.97335C6.84006 8.97335 5.90006 8.03335 5.90006 6.87335C5.90006 5.71335 6.84006 4.77335 8.00006 4.77335C9.16006 4.77335 10.1001 5.71335 10.1001 6.87335C10.1001 8.03335 9.16006 8.97335 8.00006 8.97335Z" fill="white"/>
</svg>
