<svg width="41" height="40" viewBox="0 0 41 40" fill="none" xmlns="http://www.w3.org/2000/svg">
<path opacity="0.4" d="M36.8999 17.4L35.2666 24.3666C33.8666 30.3833 31.0999 32.8166 25.8999 32.3166C25.0666 32.25 24.1666 32.1 23.1999 31.8666L20.3999 31.2C13.4499 29.55 11.2999 26.1166 12.9332 19.15L14.5666 12.1666C14.8999 10.75 15.2999 9.51664 15.7999 8.49997C17.7499 4.46664 21.0666 3.38331 26.6332 4.69997L29.4166 5.34997C36.3999 6.98331 38.5332 10.4333 36.8999 17.4Z" fill="#1E88E5"/>
<path d="M25.8999 32.3167C24.8666 33.0167 23.5666 33.6 21.9833 34.1167L19.3499 34.9833C12.7333 37.1167 9.24995 35.3333 7.09995 28.7167L4.96661 22.1333C2.83328 15.5167 4.59995 12.0167 11.2166 9.88333L13.8499 9.01667C14.5333 8.8 15.1833 8.61667 15.7999 8.5C15.2999 9.51667 14.8999 10.75 14.5666 12.1667L12.9333 19.15C11.2999 26.1167 13.4499 29.55 20.3999 31.2L23.1999 31.8667C24.1666 32.1 25.0666 32.25 25.8999 32.3167Z" fill="#1E88E5"/>
<path d="M29.9499 17.5167C29.8499 17.5167 29.7499 17.5 29.6332 17.4833L21.5499 15.4333C20.8832 15.2667 20.4832 14.5833 20.6499 13.9167C20.8166 13.25 21.4999 12.85 22.1666 13.0167L30.2499 15.0667C30.9166 15.2333 31.3166 15.9167 31.1499 16.5833C31.0166 17.1333 30.4999 17.5167 29.9499 17.5167Z" fill="#1E88E5"/>
<path d="M25.0666 23.15C24.9666 23.15 24.8666 23.1333 24.7499 23.1167L19.8999 21.8833C19.2333 21.7167 18.8333 21.0333 18.9999 20.3667C19.1666 19.7 19.8499 19.3 20.5166 19.4667L25.3666 20.7C26.0333 20.8667 26.4333 21.55 26.2666 22.2167C26.1333 22.7833 25.6333 23.15 25.0666 23.15Z" fill="#1E88E5"/>
</svg>
