<svg width="41" height="40" viewBox="0 0 41 40" fill="none" xmlns="http://www.w3.org/2000/svg">
<path opacity="0.4" d="M28.5333 6.24999H21.9833L24.3333 4.30002C24.8667 3.85002 24.9333 3.06669 24.5 2.53336C24.05 2.00002 23.2666 1.9333 22.7333 2.36663L17.7333 6.5333C17.45 6.76663 17.2833 7.11666 17.2833 7.49999C17.2833 7.88332 17.45 8.21669 17.7333 8.46669L22.7333 12.6334C22.9666 12.8334 23.25 12.9167 23.5333 12.9167C23.8833 12.9167 24.25 12.7666 24.5 12.4666C24.95 11.9333 24.8667 11.15 24.3333 10.7L21.9833 8.74999H28.5333C29.6833 8.74999 30.6167 9.68332 30.6167 10.8333V26.6667C30.6167 27.35 31.1833 27.9167 31.8667 27.9167C32.55 27.9167 33.1167 27.35 33.1167 26.6667V10.8333C33.1167 8.29999 31.0667 6.24999 28.5333 6.24999Z" fill="#1E88E5"/>
<path d="M31.8666 36.6667C34.628 36.6667 36.8666 34.4281 36.8666 31.6667C36.8666 28.9053 34.628 26.6667 31.8666 26.6667C29.1052 26.6667 26.8666 28.9053 26.8666 31.6667C26.8666 34.4281 29.1052 36.6667 31.8666 36.6667Z" fill="#1E88E5"/>
<path opacity="0.4" d="M22.6667 31.5333L17.6667 27.3666C17.1333 26.9166 16.35 27 15.9 27.5333C15.45 28.0667 15.5333 28.85 16.0666 29.3L18.4166 31.25H11.8667C10.7167 31.25 9.78333 30.3166 9.78333 29.1666V13.3333C9.78333 12.65 9.21666 12.0833 8.53333 12.0833C7.84999 12.0833 7.28333 12.65 7.28333 13.3333V29.1666C7.28333 31.7 9.33333 33.75 11.8667 33.75H18.4166L16.0666 35.7C15.5333 36.15 15.4667 36.9333 15.9 37.4666C16.15 37.7666 16.5 37.9166 16.8667 37.9166C17.15 37.9166 17.4333 37.8167 17.6667 37.6333L22.6667 33.4667C22.95 33.2333 23.1167 32.8833 23.1167 32.5C23.1167 32.1166 22.95 31.7833 22.6667 31.5333Z" fill="#1E88E5"/>
<path d="M8.53333 13.3333C11.2947 13.3333 13.5333 11.0947 13.5333 8.33331C13.5333 5.57189 11.2947 3.33331 8.53333 3.33331C5.7719 3.33331 3.53333 5.57189 3.53333 8.33331C3.53333 11.0947 5.7719 13.3333 8.53333 13.3333Z" fill="#1E88E5"/>
</svg>
