<svg width="41" height="40" viewBox="0 0 41 40" fill="none" xmlns="http://www.w3.org/2000/svg">
<path opacity="0.4" d="M12.6833 36.6667H20.1833C26.4333 36.6667 28.9333 34.1667 28.9333 27.9167V20.4167C28.9333 14.1667 26.4333 11.6667 20.1833 11.6667H12.6833C6.43335 11.6667 3.93335 14.1667 3.93335 20.4167V27.9167C3.93335 34.1667 6.43335 36.6667 12.6833 36.6667Z" fill="#1E88E5"/>
<path d="M36.0166 17.5C35.3333 17.5 34.7666 16.9333 34.7666 16.25C34.7666 11.3166 31.3333 7.18331 26.7166 6.09998L27.1666 6.84998C27.5166 7.44998 27.3333 8.21665 26.7333 8.56665C26.1333 8.91665 25.3666 8.73331 25.0166 8.13331L23.2666 5.21665C23.0333 4.83331 23.0333 4.34998 23.25 3.96665C23.4833 3.58331 23.9 3.33331 24.35 3.33331C31.4666 3.33331 37.2666 9.13331 37.2666 16.25C37.2666 16.9333 36.7 17.5 36.0166 17.5Z" fill="#1E88E5"/>
</svg>
