<svg width="16" height="16" viewBox="0 0 16 16" fill="none" xmlns="http://www.w3.org/2000/svg">
<path d="M11.333 2.33331H4.66634C2.66634 2.33331 1.33301 3.33331 1.33301 5.66665V10.3333C1.33301 12.6666 2.66634 13.6666 4.66634 13.6666H11.333C13.333 13.6666 14.6663 12.6666 14.6663 10.3333V5.66665C14.6663 3.33331 13.333 2.33331 11.333 2.33331ZM11.6463 6.39331L9.55967 8.05998C9.11967 8.41331 8.55967 8.58665 7.99967 8.58665C7.43967 8.58665 6.87301 8.41331 6.43967 8.05998L4.35301 6.39331C4.13967 6.21998 4.10634 5.89998 4.27301 5.68665C4.44634 5.47331 4.75967 5.43331 4.97301 5.60665L7.05967 7.27331C7.56634 7.67998 8.42634 7.67998 8.93301 7.27331L11.0197 5.60665C11.233 5.43331 11.553 5.46665 11.7197 5.68665C11.893 5.89998 11.8597 6.21998 11.6463 6.39331Z" fill="white"/>
</svg>
