<svg width="41" height="40" viewBox="0 0 41 40" fill="none" xmlns="http://www.w3.org/2000/svg">
<path opacity="0.4" d="M28.5798 0H11.8198C4.53983 0 0.199829 4.34 0.199829 11.62V28.38C0.199829 35.66 4.53983 40 11.8198 40H28.5798C35.8598 40 40.1998 35.66 40.1998 28.38V11.62C40.1998 4.34 35.8598 0 28.5798 0Z" fill="#1E88E5"/>
<path d="M32.8198 13.74C32.8198 14.56 32.1598 15.24 31.3198 15.24H20.8198C19.9998 15.24 19.3198 14.56 19.3198 13.74C19.3198 12.92 19.9998 12.24 20.8198 12.24H31.3198C32.1598 12.24 32.8198 12.92 32.8198 13.74Z" fill="#1E88E5"/>
<path d="M16.1398 11.8L11.6398 16.3C11.3398 16.6 10.9598 16.74 10.5798 16.74C10.1998 16.74 9.79982 16.6 9.51982 16.3L8.01982 14.8C7.41982 14.22 7.41982 13.26 8.01982 12.68C8.59982 12.1 9.53982 12.1 10.1398 12.68L10.5798 13.12L14.0198 9.68C14.5998 9.1 15.5398 9.1 16.1398 9.68C16.7198 10.26 16.7198 11.22 16.1398 11.8Z" fill="#1E88E5"/>
<path d="M32.8198 27.74C32.8198 28.56 32.1598 29.24 31.3198 29.24H20.8198C19.9998 29.24 19.3198 28.56 19.3198 27.74C19.3198 26.92 19.9998 26.24 20.8198 26.24H31.3198C32.1598 26.24 32.8198 26.92 32.8198 27.74Z" fill="#1E88E5"/>
<path d="M16.1398 25.8L11.6398 30.3C11.3398 30.6 10.9598 30.74 10.5798 30.74C10.1998 30.74 9.79982 30.6 9.51982 30.3L8.01982 28.8C7.41982 28.22 7.41982 27.26 8.01982 26.68C8.59982 26.1 9.53982 26.1 10.1398 26.68L10.5798 27.12L14.0198 23.68C14.5998 23.1 15.5398 23.1 16.1398 23.68C16.7198 24.26 16.7198 25.22 16.1398 25.8Z" fill="#1E88E5"/>
</svg>
